<?xml version="1.0" encoding="UTF-8"?>
<svg version="1.1" viewBox="0 0 100 100" xmlns="http://www.w3.org/2000/svg"><defs><style>.a{fill:#1a1a1a;}.b{fill:#fff;}</style></defs><path d="m87.5 6.25a6.25 6.25 0 016.25 6.25v75a6.25 6.25 0 01-6.25 6.25h-75a6.25 6.25 0 01-6.25-6.25v-75a6.25 6.25 0 016.25-6.25zm-75-6.25a12.5 12.5 0 00-12.5 12.5v75a12.5 12.5 0 0012.5 12.5h75a12.5 12.5 0 0012.5-12.5v-75a12.5 12.5 0 00-12.5-12.5z" stroke-width="6.25"/><path d="m34.375 75a9.375 9.375 0 11-18.75 0 9.375 9.375 0 0118.75 0zm-18.75-53.125a6.25 6.25 0 016.25-6.25c34.519 0 62.5 27.981 62.5 62.5a6.25 6.25 0 11-12.5 0 50 50 0 00-50-50 6.25 6.25 0 01-6.25-6.25zm0 25a6.25 6.25 0 016.25-6.25 37.5 37.5 0 0137.5 37.5 6.25 6.25 0 11-12.5 0 25 25 0 00-25-25 6.25 6.25 0 01-6.25-6.25z" stroke-width="6.25"/></svg>
