<?xml version="1.0" encoding="UTF-8"?>
<svg version="1.1" viewBox="0 0 100 100" xmlns="http://www.w3.org/2000/svg"><defs><style>.a{fill:#1d1d1b;}.b{fill:#fff;}</style></defs><g stroke-width="1.32"><circle class="a" cx="50" cy="50" r="50"/><path class="b" d="m36.312 98.099a50.475 50.475 0 0026.967.1056 12.328 12.328 0 01-1.6367-2.7323c-2.6399-5.9794 1.2408-10.652-.43559-17.516a16.46 16.46 0 00-2.4155-5.359 28.01 28.01 0 0015.034-6.9298c2.3759-2.1647 7.9197-7.273 8.2761-15.51a21.423 21.423 0 00-6.3754-15.404 10.256 10.256 0 002.8643-6.5998c0-.83157.1188-4.8178-2.6399-6.5998-2.7587-1.7819-6.5998.066-7.9197.72598a12.183 12.183 0 00-5.1214 5.029 30.108 30.108 0 00-25.264.63358 16.235 16.235 0 00-5.9398-4.6199c-2.1251-.95037-5.2798-2.4023-7.7086-.88437-2.4287 1.518-2.4155 5.2798-2.4155 6.3754a10.903 10.903 0 002.0063 6.1642 21.819 21.819 0 00-6.349 14.929c0 10.718 9.0813 16.961 10.81 18.149a26.399 26.399 0 0012.922 4.5407 8.6193 8.6193 0 01-3.5243 7.0354 8.0385 8.0385 0 01-8.1441.44879c-.67318-.38279-1.1484-.80517-4.8046-6.1906-2.4287-3.5903-2.7719-4.2371-3.8807-5.0026-2.2571-1.584-5.7022-2.3495-6.7054-1.1352-1.0032 1.2144 1.1352 4.9102 3.0755 7.9197 3.1283 4.8442 5.6626 8.8041 10.784 10.784a17.78 17.78 0 009.2397.88437z"/><circle cx="63.745" cy="46.34" r="4.5803"/><circle cx="36.67" cy="43.881" r="6.6526"/></g></svg>
