<?xml version="1.0" encoding="UTF-8"?>
<svg version="1.1" viewBox="0 0 100 100" xml:space="preserve" xmlns="http://www.w3.org/2000/svg"><g stroke-width="0"><path id="a" class="st3" d="m49.997 100 18.423-61.525h-36.818z"/><path id="b" class="st4" d="m5.797 38.475-5.6101 18.692c-.50767 1.6973.04053 3.5708 1.3805 4.6288l48.429 38.204z"/><path id="c" class="st3" d="m5.797 38.475h25.804l-11.105-37.053c-.56839-1.8957-3.0454-1.8957-3.6342 0z"/><path id="d" class="st4" d="m94.223 38.475 5.5899 18.692c.50766 1.6973-.04053 3.5708-1.3805 4.6288l-48.436 38.204z"/><path id="e" class="st3" d="m94.223 38.475h-25.804l11.085-37.053c.56839-1.8957 3.0454-1.8957 3.6342 0z"/></g><g fill="#fff" stroke-width="0"><polygon class="st5" transform="matrix(.29619 0 0 .32158 -36.72 -39.851)" points="292.78 434.89 143.55 243.57 230.67 243.57"/><polygon class="st5" transform="matrix(.29619 0 0 .32158 -36.72 -39.851)" points="292.78 434.89 354.98 243.57 442.1 243.57"/></g></svg>
