<?xml version="1.0" encoding="UTF-8"?>
<svg version="1.1" viewBox="0 0 100 100" xmlns="http://www.w3.org/2000/svg"><defs><style>.a{fill:#1d1d1b;}.b{fill:#fff;}</style></defs><path d="m97.229 97.711v-95.422h-7.229v-2.2888h10v100h-10v-2.2888z" stroke-width="3.2097"/><path d="m32.023 32.651v4.8277h.13758c1.2023-1.7626 2.7929-3.226 4.6495-4.2774 1.8135-1.0099 3.8928-1.5165 6.2316-1.5165 2.2513 0 4.3055.43775 6.166 1.3132 1.8604.87237 3.2737 2.4107 4.2368 4.6182 1.0568-1.5634 2.4889-2.9423 4.3055-4.1367 1.8135-1.1975 3.9585-1.7948 6.4411-1.7948 1.8823 0 3.627.23138 5.2342.68789 1.6072.46276 2.9829 1.1975 4.1336 2.2106 1.1444 1.0099 2.0418 2.3326 2.6859 3.9647.64098 1.6322.96304 3.5958.96304 5.9002v23.867h-9.7774v-20.211c0-1.1975-.0469-2.3232-.13758-3.3832-.06547-.96058-.32278-1.8983-.75668-2.7578-.41633-.7842-1.0505-1.4314-1.826-1.8635-.80358-.45651-1.8948-.68789-3.2737-.68789-1.3758 0-2.4889.26578-3.3394.79107-.85048.53155-1.5165 1.2194-1.998 2.0699-.49758.89826-.82413 1.8811-.96304 2.8985-.16243 1.0847-.24395 2.18-.24389 3.2768v19.867h-9.7805v-20.005c0-1.0568-.02189-2.1043-.06566-3.1393-.03549-.98073-.23413-1.9487-.58783-2.8641-.33754-.86492-.93934-1.6013-1.7197-2.1043-.8067-.5253-1.9886-.79107-3.5489-.79107-.6195.02595-1.2331.13117-1.826.31268-.80789.23282-1.5586.63105-2.2044 1.1694-.7129.57532-1.3195 1.4039-1.826 2.4826-.50341 1.0819-.75668 2.4952-.75668 4.243v20.696h-9.7836v-35.664z" stroke-width="3.1268"/><path d="m2.771 2.2888v95.422h7.229v2.2888h-10v-100h9.9967v2.2888z" stroke-width="3.2097"/></svg>
