<?xml version="1.0" encoding="UTF-8"?>
<svg version="1.1" viewBox="0 0 100 100" xmlns="http://www.w3.org/2000/svg"><defs><style>.a{fill:#1d1d1b;}.b{fill:#fff;}</style></defs><circle cx="50" cy="50" r="50" stroke-width=".41667"/><path d="m33.952 54.241-12.202-3.9758s-1.4583-.59167-.98875-1.9333c.09667-.27667.29167-.51208.875-.91667 2.7038-1.8846 50.044-18.9 50.044-18.9s1.3367-.45042 2.125-.15083a1.1525 1.1525 0 01.78542.85625 3.8988 3.8988 0 01.10583 1.0771c-.0038.31333-.04167.60375-.07042 1.0592-.28833 4.6521-8.9167 39.372-8.9167 39.372s-.51625 2.0317-2.3658 2.1012a3.3875 3.3875 0 01-2.4688-.955c-3.6296-3.1221-16.175-11.553-18.947-13.407a.52917.52917 0 01-.2275-.375c-.03875-.19542.17375-.4375.17375-.4375s21.844-19.417 22.425-21.455c.045-.15792-.125-.23583-.35333-.16667-1.4508.53375-26.602 16.417-29.377 18.17a1.3375 1.3375 0 01-.61667.0375z" fill="#fff" stroke-width=".41667"/></svg>
